<?xml version="1.0" encoding="UTF-8" standalone="no"?>
<!-- Created with Inkscape (http://www.inkscape.org/) -->

<svg
   width="401.05832mm"
   height="62.998997mm"
   viewBox="0 0 401.05832 62.998997"
   version="1.1"
   id="svg1"
   inkscape:version="1.4.2 (f4327f4, 2025-05-13)"
   sodipodi:docname="MisterLogo.svg"
   xml:space="preserve"
   inkscape:export-filename="..\Downloads\logo.svg"
   inkscape:export-xdpi="26.206766"
   inkscape:export-ydpi="26.206766"
   xmlns:inkscape="http://www.inkscape.org/namespaces/inkscape"
   xmlns:sodipodi="http://sodipodi.sourceforge.net/DTD/sodipodi-0.dtd"
   xmlns="http://www.w3.org/2000/svg"
   xmlns:svg="http://www.w3.org/2000/svg"><sodipodi:namedview
     id="namedview1"
     pagecolor="#ffffff"
     bordercolor="#000000"
     borderopacity="0.25"
     inkscape:showpageshadow="2"
     inkscape:pageopacity="0.0"
     inkscape:pagecheckerboard="0"
     inkscape:deskcolor="#d1d1d1"
     inkscape:document-units="px"
     inkscape:zoom="0.22404953"
     inkscape:cx="801.16215"
     inkscape:cy="-171.83701"
     inkscape:window-width="1360"
     inkscape:window-height="705"
     inkscape:window-x="-8"
     inkscape:window-y="-8"
     inkscape:window-maximized="1"
     inkscape:current-layer="svg1" /><defs
     id="defs1"><rect
       x="180.76361"
       y="84.802681"
       width="1144.8362"
       height="220.9333"
       id="rect1" /><rect
       x="180.76361"
       y="84.802681"
       width="1144.8362"
       height="220.9333"
       id="rect2" /></defs><path
     style="font-weight:bold;font-size:170.667px;font-family:Arvo;-inkscape-font-specification:'Arvo Bold';text-align:center;text-anchor:middle;white-space:pre;fill:#ffffff;stroke-width:37.7953;stroke-linecap:round;paint-order:stroke fill markers"
     d="m 457.05605,217.67404 h 11.75002 v -80.58349 h -11.75002 v -22.91672 h 52.0001 l 37.25008,91.16685 34.5834,-91.16685 h 52.75011 v 22.91672 h -11.75003 v 80.58349 h 11.58336 v 22.83338 h -47.2501 v -22.83338 h 8.66669 v -72.66681 l -37.83341,94.00019 h -23.41671 l -38.50008,-91.50019 v 70.16681 h 9.41668 v 22.83338 H 457.05605 Z M 649.7231,154.17391 h 38.75007 v 63.50013 h 12.00003 v 22.83338 h -50.7501 v -22.83338 h 13.00002 V 177.00729 H 649.7231 Z m 11.66669,-27.83339 q 0,-3.08333 1.08333,-5.75001 1.16667,-2.75 3.16668,-4.75001 2,-2 4.66667,-3.16667 2.75001,-1.16667 5.91668,-1.16667 3.00001,0 5.66668,1.16667 2.66667,1.16667 4.66667,3.16667 2.00001,2.00001 3.16668,4.75001 1.16667,2.66668 1.16667,5.75001 0,3.08334 -1.16667,5.83335 -1.16667,2.66667 -3.16668,4.66668 -2,2 -4.66667,3.16667 -2.66667,1.16667 -5.66668,1.16667 -3.16667,0 -5.91668,-1.16667 -2.66667,-1.16667 -4.66667,-3.16667 -2.00001,-2.00001 -3.16668,-4.66668 -1.08333,-2.75001 -1.08333,-5.83335 z m 109.25022,54.25011 q 0,-2 -1.33334,-3.83334 -1.25,-1.83333 -3.75001,-3.16667 -2.5,-1.41667 -6.16668,-2.25001 -3.58334,-0.83333 -8.16668,-0.83333 -1.75,0 -3.75001,0.33333 -2,0.25 -3.75,1.00001 -1.66667,0.75 -2.83334,2.08333 -1.08334,1.25001 -1.08334,3.25001 0,1 0.25,1.91667 0.33334,0.91667 1.16667,1.75 0.83334,0.83334 2.25001,1.58334 1.5,0.66667 3.83334,1.08334 l 15.66669,3.08334 q 8.50002,1.66667 14.25003,4.16667 5.75001,2.5 9.25002,5.83334 3.50001,3.33334 5.00001,7.41669 1.58334,4.08334 1.58334,8.83335 0,7.41668 -3.50001,13.00002 -3.41667,5.58335 -9.08335,9.33336 -5.58335,3.66667 -12.66669,5.50001 -7.00002,1.91667 -14.1667,1.91667 -4.66667,0 -8.50001,-0.58334 -3.75001,-0.58333 -6.83335,-1.58333 -3.00001,-1.00001 -5.41668,-2.33334 -2.33334,-1.41667 -4.33334,-3.08334 H 713.47323 V 211.8407 h 23.58338 v 0.5 q 0.0833,2.41667 1.5,4.25 1.41667,1.75001 3.66667,3.00001 2.33334,1.25 5.25001,1.91667 2.91668,0.58334 6.16668,0.58334 7.50002,0 10.91669,-1.91667 3.41667,-2.00001 3.41667,-5.08335 0,-2.41667 -1.66667,-4.08334 -1.66667,-1.75 -5.91667,-2.75001 l -16.00004,-3.41667 q -15.08336,-2.91667 -22.75004,-9.66668 -7.66668,-6.83335 -7.66668,-17.50004 0,-6.25001 2.91667,-11.33336 2.91667,-5.16667 7.91668,-8.75001 5.00001,-3.66668 11.66669,-5.66668 6.75001,-2 14.4167,-2 5.25001,0 9.33335,0.66666 4.08334,0.58334 7.33335,1.58334 3.25,1 5.66667,2.41667 2.50001,1.33334 4.41668,2.83334 h 14.50003 v 23.16671 z m 69.33348,-26.41672 h 17.25003 v 21.83338 h -17.4167 l -0.16667,36.50007 q 0,3.16668 0.5,5.16668 0.50001,1.91667 1.41667,3.08334 1.00001,1.16667 2.33334,1.58334 1.33334,0.41666 3.08334,0.41666 3.16667,0 5.58335,-0.58333 2.41667,-0.66667 4.83334,-1.5 l 3.58334,16.08336 q -4.25001,2.66667 -9.50002,4.25001 -5.16668,1.58334 -12.33336,1.58334 -5.08334,0 -9.75002,-1.75001 -4.58334,-1.75 -8.08335,-5.25001 -3.5,-3.58334 -5.58334,-8.91668 -2.08334,-5.33335 -2,-12.41669 l 0.25,-38.25008 h -12.4167 v -21.83338 h 12.50003 l 0.16667,-20.6667 25.91671,-12.33336 z m 56.50012,48.58343 0.25,2.58334 q 0.91667,3.75001 3.08334,6.58335 2.25,2.83334 5.25001,4.75001 3.00001,1.91667 6.66668,2.91667 3.66667,0.91667 7.41668,0.91667 3.75001,0 7.08335,-0.41667 3.41667,-0.5 6.58335,-1.25 3.16667,-0.83334 6.16667,-1.83334 3.00001,-1.08333 6.08335,-2.25 l 9.16669,17.08337 q -4.75001,2.91667 -8.75002,5.00001 -3.91668,2 -7.91668,3.33334 -4.00001,1.33333 -8.50002,1.91667 -4.50001,0.66666 -10.50002,0.66666 -11.25003,0 -20.00004,-3.66667 -8.75002,-3.75001 -14.75003,-10.08335 -5.91668,-6.33335 -9.08335,-14.83337 -3.08334,-8.50001 -3.08334,-18.00003 0,-9.50002 3.25,-17.83337 3.33334,-8.33335 9.33336,-14.50003 6.00001,-6.25001 14.33336,-9.83335 8.33335,-3.58334 18.50003,-3.58334 10.16669,0 18.00004,3.41667 7.91668,3.33334 13.33336,9.33335 5.41668,5.91668 8.33335,14.00003 2.91667,8.00002 3.16667,17.25003 0.25,2.08334 0.25,4.16668 0.0833,2 -0.0833,4.16667 z m 19.91671,-31.50006 q -4.66668,0 -8.00002,1.16667 -3.25001,1.08334 -5.50001,3.08334 -2.25001,1.91667 -3.58334,4.41668 -1.33334,2.5 -2.08334,5.25001 h 36.08341 q -0.58334,-2.83334 -1.66667,-5.33335 -1.08334,-2.5 -3.00001,-4.41667 -1.91667,-1.91667 -4.91668,-3.00001 -2.91667,-1.16667 -7.33334,-1.16667 z m 134.83358,14.33336 h -23.4167 v -8.91668 q -3.4167,0 -6.25,0.5 -2.8334,0.41667 -5.0001,1.5 -2.0833,1.08334 -3.5833,3.00001 -1.4167,1.91667 -2,4.75001 v 31.25006 h 17.5834 v 22.83338 h -56.33347 v -22.83338 h 12.91669 v -40.66675 h -12.75003 v -22.83338 h 38.41671 v 6.08335 q 3.6667,-2.91667 8.2501,-4.50001 4.5833,-1.58334 10,-1.58334 5.5,0 11.3333,0.0833 5.8334,0.0833 10.8334,0.0833 z"
     id="text1"
     transform="matrix(0.34722666,0,0,0.34722666,-158.70205,-21.292854)"
     aria-label="Mister" /><path
     style="font-weight:bold;font-size:170.667px;font-family:Orbitron;-inkscape-font-specification:'Orbitron Bold';text-align:center;text-anchor:middle;white-space:pre;fill:#8141c0;stroke-width:37.7953;stroke-linecap:round;paint-order:stroke fill markers"
     d="M 479.60238,243.73128 V 120.85104 h 98.98687 q 6.48535,0 11.94669,3.24267 5.46134,3.24267 8.70402,8.70402 3.24267,5.29067 3.24267,11.77602 v 75.43482 q 0,6.48534 -3.24267,11.94669 -3.24268,5.29068 -8.70402,8.53335 -5.46134,3.24267 -11.94669,3.24267 z m 24.40539,-22.69871 h 73.55748 q 0.85333,0 1.536,-0.512 0.68267,-0.68267 0.68267,-1.536 v -73.38682 q 0,-0.85333 -0.68267,-1.36533 -0.68267,-0.68267 -1.536,-0.68267 h -73.55748 q -0.85334,0 -1.53601,0.68267 -0.512,0.512 -0.512,1.36533 v 73.38682 q 0,0.85333 0.512,1.536 0.68267,0.512 1.53601,0.512 z m 140.45889,22.69871 q -6.48535,0 -11.94669,-3.24267 -5.29068,-3.24267 -8.53335,-8.53335 -3.07201,-5.29068 -3.07201,-11.77603 v -37.2054 H 699.0801 V 169.1498 q 0,-0.85334 -0.68267,-1.36534 -0.512,-0.68266 -1.36533,-0.68266 h -76.11749 v -22.35738 h 76.97082 q 6.48535,0 11.77602,3.24267 5.46135,3.24267 8.53335,8.53335 3.24268,5.29068 3.24268,11.77602 v 75.43482 z m 0.85333,-22.35738 h 53.76011 v -18.26137 h -55.80811 v 16.21337 q 0,0.85333 0.512,1.536 0.68267,0.512 1.536,0.512 z m 117.76028,22.35738 q -6.48534,0 -11.77602,-3.24267 -5.29068,-3.24267 -8.53335,-8.53335 -3.24268,-5.29068 -3.24268,-11.77603 V 114.36569 h 22.35738 v 30.37873 h 38.57075 V 167.1018 H 761.8856 v 52.2241 q 0,0.85333 0.512,1.536 0.68267,0.512 1.53601,0.512 h 36.52274 v 22.35738 h -37.37608 z m 74.41077,0 q -6.48534,0 -11.77602,-3.24267 -5.29068,-3.24267 -8.53335,-8.53335 -3.24267,-5.29068 -3.24267,-11.77603 v -51.88277 q 0,-6.48534 3.24267,-11.77602 3.24267,-5.29068 8.53335,-8.53335 5.29068,-3.24267 11.77602,-3.24267 h 53.41878 q 6.48534,0 11.77602,3.24267 5.46134,3.24267 8.53335,8.53335 3.24267,5.29068 3.24267,11.77602 v 51.88277 q 0,6.48535 -3.24267,11.77603 -3.07201,5.29068 -8.36268,8.53335 -5.29068,3.24267 -11.94669,3.24267 h -53.41878 z m 0.85334,-22.35738 h 51.7121 q 0.85334,0 1.36534,-0.512 0.68267,-0.68267 0.68267,-1.536 v -50.1761 q 0,-0.85334 -0.68267,-1.36534 -0.512,-0.68266 -1.36534,-0.68266 h -51.7121 q -0.85334,0 -1.536,0.68266 -0.51201,0.512 -0.51201,1.36534 v 50.1761 q 0,0.85333 0.51201,1.536 0.68266,0.512 1.536,0.512 z m 112.98156,22.35738 q -6.48535,0 -11.77603,-3.24267 -5.29068,-3.24267 -8.53335,-8.53335 -3.24267,-5.29068 -3.24267,-11.77603 v -3.75467 h 22.35738 v 2.90134 q 0,0.85333 0.512,1.536 0.68267,0.512 1.536,0.512 h 51.71213 q 0.8533,0 1.3653,-0.512 0.6827,-0.68267 0.6827,-1.536 v -11.77602 q 0,-0.85334 -0.6827,-1.36534 -0.512,-0.68267 -1.3653,-0.68267 h -52.56546 q -6.48535,0 -11.77603,-3.24267 -5.29068,-3.24267 -8.53335,-8.53335 -3.24267,-5.29068 -3.24267,-11.77603 v -13.65336 q 0,-6.48534 3.24267,-11.77602 3.24267,-5.29068 8.53335,-8.53335 5.29068,-3.24267 11.77603,-3.24267 h 53.41876 q 6.656,0 11.9467,3.24267 5.2907,3.24267 8.5333,8.53335 3.2427,5.29068 3.2427,11.77602 v 3.75468 h -22.528 v -2.90134 q 0,-0.85334 -0.6827,-1.36534 -0.512,-0.68266 -1.3653,-0.68266 h -51.71213 q -0.85333,0 -1.536,0.68266 -0.512,0.512 -0.512,1.36534 v 11.77602 q 0,0.85334 0.512,1.53601 0.68267,0.512 1.536,0.512 h 52.56543 q 6.656,0 11.9467,3.24267 5.2907,3.24267 8.5333,8.53335 3.2427,5.29068 3.2427,11.77602 v 13.65336 q 0,6.48535 -3.2427,11.77603 -3.2426,5.29068 -8.5333,8.53335 -5.2907,3.24267 -11.9467,3.24267 h -53.41876 z"
     id="text2"
     transform="matrix(0.34722667,0,0,0.34722667,43.946984,-21.958225)"
     aria-label="Datos" /><path
     d="m 174.89855,28.031586 c 0.30991,0.0014 0.6106,-0.105436 0.85003,-0.302298 0.23943,-0.196862 0.40256,-0.47114 0.46119,-0.775414 0.0366,-0.174589 0.0382,-0.354746 0.005,-0.530054 -0.0336,-0.175308 -0.10164,-0.342174 -0.20024,-0.490898 -0.0986,-0.148724 -0.22576,-0.276253 -0.37409,-0.375403 -0.14834,-0.09933 -0.3149,-0.167943 -0.49003,-0.20225 l -35.38488,-7.615831 c -0.34756,-0.0749 -0.71075,-0.0093 -1.01035,0.182492 -0.29943,0.191833 -0.51084,0.494311 -0.58825,0.841334 -0.0753,0.349897 -0.0102,0.715421 0.18123,1.017719 0.19148,0.302299 0.49413,0.517482 0.84259,0.598849 l 35.4208,7.615831 z"
     fill="#000000"
     id="path3"
     style="fill:#8141c0;fill-opacity:1;stroke:none;stroke-width:1.79619;stroke-opacity:1" /><path
     d="m 169.50999,26.864065 c 0.30873,-3.59e-4 0.60826,-0.105256 0.84967,-0.297808 0.24141,-0.192371 0.41045,-0.461081 0.47951,-0.761942 l 3.12536,-14.531149 c 0.18753,-0.866839 0.20247,-1.7621484 0.044,-2.6347717 -0.15848,-0.8726413 -0.48728,-1.705515 -0.96766,-2.4510761 -0.48035,-0.7455432 -1.10286,-1.3891886 -1.83196,-1.8941685 -0.72911,-0.5049799 -1.55054,-0.8614151 -2.41738,-1.048937 l -14.3695,-3.08944078 c -0.86306,-0.1887792 -1.75487,-0.20503469 -2.62404,-0.0478325 -0.86936,0.15722021 -1.69902,0.4848087 -2.4412,0.96388748 -1.50556,0.9742875 -2.5646,2.5046385 -2.94575,4.256962 L 143.28567,19.8769 c -0.0693,0.34828 0.002,0.709673 0.19758,1.005864 0.0907,0.152856 0.21303,0.284696 0.35852,0.386899 0.14549,0.102203 0.3111,0.172434 0.48569,0.205843 l 24.93107,5.388559 z M 152.98508,2.7053568 c 0.28469,0.00235 0.56813,0.038528 0.8442,0.1077711 l 14.3695,3.0894408 c 0.5208,0.1148302 1.01328,0.3329411 1.4483,0.6414721 0.43501,0.308531 0.80374,0.7011773 1.08432,1.1547144 0.29265,0.4423109 0.49284,0.9392439 0.58852,1.4608924 0.0957,0.5216664 0.0849,1.0572894 -0.0317,1.5746624 l -2.83798,13.219933 -22.29067,-4.795818 2.8739,-13.2558563 c 0.11459,-0.523301 0.33247,-1.0184736 0.64087,-1.4564558 0.30841,-0.4379821 0.70124,-0.8099723 1.15531,-1.094129 0.64519,-0.4099796 1.39115,-0.6337485 2.15543,-0.6466271 z"
     fill="#000000"
     id="path1"
     style="fill:#8141c0;fill-opacity:1;stroke:none;stroke-width:1.79619;stroke-opacity:1" /><path
     d="m 170.91102,20.433718 c 0.32719,-0.0092 0.63989,-0.13705 0.87966,-0.359777 0.23977,-0.222906 0.39022,-0.525384 0.42322,-0.851033 0.033,-0.325648 -0.0537,-0.652195 -0.24387,-0.91857 -0.1902,-0.266374 -0.47087,-0.454435 -0.78959,-0.528977 l -24.93106,-5.388559 c -0.35008,-0.07382 -0.71525,-0.0056 -1.01503,0.189857 -0.29978,0.195425 -0.50976,0.501854 -0.58358,0.851931 -0.0738,0.350077 -0.006,0.715242 0.18986,1.015025 0.19524,0.299784 0.50185,0.509758 0.85193,0.583581 l 24.93107,5.38856 z"
     fill="#000000"
     id="path2"
     style="fill:#8141c0;fill-opacity:1;stroke:none;stroke-width:1.79619;stroke-opacity:1" /><style
     type="text/css"
     id="style1">
	.st0{fill:none;stroke:#000000;stroke-width:2;stroke-linecap:round;stroke-linejoin:round;stroke-miterlimit:10;}
</style><style
     type="text/css"
     id="style1-0">
	.st0{fill:none;stroke:#000000;stroke-width:2;stroke-linecap:round;stroke-linejoin:round;stroke-miterlimit:10;}
</style><style
     type="text/css"
     id="style1-4">
	.st0{fill:none;stroke:#000000;stroke-width:2;stroke-linecap:round;stroke-linejoin:round;stroke-miterlimit:10;}
</style><style
     type="text/css"
     id="style1-8">
	.st0{fill:none;stroke:#000000;stroke-width:2;stroke-linecap:round;stroke-linejoin:round;stroke-miterlimit:10;}
</style></svg>
